<svg xmlns="http://www.w3.org/2000/svg" viewBox="0 0 100 100" width="24" height="24" fill="currentColor">
  <path d="M12 40h22a3 3 0 0 1 0 6H12a3 3 0 0 1 0-6z" />
  <path d="M8 52h26a3 3 0 0 1 0 6H8a3 3 0 0 1 0-6z" />
  
  <path d="M11.5 15a3 3 0 0 1 2.8-2h9.2a3 3 0 0 1 2.9 2.2l4.8 17.8h55.3a4 4 0 0 1 3.9 4.9l-7.5 32a4 4 0 0 1-3.9 3.1H37.8c-1.3 0-2.5-.7-3.2-1.8L18.4 39H12a3 3 0 0 1 0-6h8.2a3 3 0 0 1 2.9 2.2l2.2 8.3c1.7-2.3 4-4.2 6.7-5.4L23.4 17.2a3 3 0 0 1-2.9-2.2H14.3a3 3 0 0 1-2.8-2z" />
  <path d="M34.7 41.5c4.2-1.7 8.9-1.5 13 .5l38.8.1-5.6 23.9H39.2l-4.5-24.5z" />
  
  <circle cx="41" cy="81" r="8" />
  
  <circle cx="73" cy="81" r="8" />
</svg>
